<?xml version="1.0" encoding="UTF-8"?>
<svg version="1.1" xmlns="http://www.w3.org/2000/svg" width="80" height="80">
<path d="M0 0 C1.07507813 -0.00128906 2.15015625 -0.00257813 3.2578125 -0.00390625 C4.38960937 -0.00003906 5.52140625 0.00382813 6.6875 0.0078125 C7.81929687 0.00394531 8.95109375 0.00007812 10.1171875 -0.00390625 C11.19226562 -0.00261719 12.26734375 -0.00132812 13.375 0 C14.36886719 0.00112793 15.36273438 0.00225586 16.38671875 0.00341797 C18.6875 0.1328125 18.6875 0.1328125 19.6875 1.1328125 C19.72813832 2.79898365 19.730221 4.46669345 19.6875 6.1328125 C20.3475 6.1328125 21.0075 6.1328125 21.6875 6.1328125 C21.6875 6.7928125 21.6875 7.4528125 21.6875 8.1328125 C22.65171875 8.08640625 23.6159375 8.04 24.609375 7.9921875 C25.87265625 7.95609375 27.1359375 7.92 28.4375 7.8828125 C29.69046875 7.83640625 30.9434375 7.79 32.234375 7.7421875 C35.6875 8.1328125 35.6875 8.1328125 37.87890625 9.4765625 C40.77005471 13.72274167 40.17913341 18.00880724 40.078125 23.0234375 C40.07409668 23.96300293 40.07006836 24.90256836 40.06591797 25.87060547 C40.04501552 29.37487359 39.98916988 32.87886298 39.9375 36.3828125 C39.855 44.2203125 39.7725 52.0578125 39.6875 60.1328125 C17.9075 60.1328125 -3.8725 60.1328125 -26.3125 60.1328125 C-26.395 52.2953125 -26.4775 44.4578125 -26.5625 36.3828125 C-26.59891602 33.91329102 -26.63533203 31.44376953 -26.67285156 28.89941406 C-26.68453463 26.94076406 -26.69472735 24.98210435 -26.703125 23.0234375 C-26.72358887 22.00749512 -26.74405273 20.99155273 -26.76513672 19.94482422 C-26.76868115 12.80279777 -26.76868115 12.80279777 -24.50390625 9.4765625 C-21.30646759 7.51592275 -18.7714159 7.74544524 -15.0625 7.8828125 C-13.79921875 7.91890625 -12.5359375 7.955 -11.234375 7.9921875 C-9.78804687 8.06179688 -9.78804687 8.06179688 -8.3125 8.1328125 C-8.3125 7.4728125 -8.3125 6.8128125 -8.3125 6.1328125 C-7.6525 6.1328125 -6.9925 6.1328125 -6.3125 6.1328125 C-6.333125 5.3284375 -6.35375 4.5240625 -6.375 3.6953125 C-6.26263642 -0.91159438 -4.05287874 0.00459957 0 0 Z M-2.3125 2.1328125 C-2.9725 3.4528125 -3.6325 4.7728125 -4.3125 6.1328125 C-3.6525 6.1328125 -2.9925 6.1328125 -2.3125 6.1328125 C-2.3125 6.7928125 -2.3125 7.4528125 -2.3125 8.1328125 C3.6275 8.1328125 9.5675 8.1328125 15.6875 8.1328125 C15.6875 7.4728125 15.6875 6.8128125 15.6875 6.1328125 C16.3475 6.1328125 17.0075 6.1328125 17.6875 6.1328125 C17.0275 4.8128125 16.3675 3.4928125 15.6875 2.1328125 C9.7475 2.1328125 3.8075 2.1328125 -2.3125 2.1328125 Z M-22.3125 12.1328125 C-25.10255585 16.49705494 -24.56707799 21.58902145 -24.5078125 26.58984375 C-24.5049826 27.49280685 -24.50215271 28.39576996 -24.49923706 29.32609558 C-24.48807607 32.19930484 -24.46297897 35.07219805 -24.4375 37.9453125 C-24.42746493 39.89778194 -24.41834 41.85025629 -24.41015625 43.80273438 C-24.38815008 48.57954816 -24.35364831 53.35612681 -24.3125 58.1328125 C-21.0125 58.1328125 -17.7125 58.1328125 -14.3125 58.1328125 C-14.18875 57.0809375 -14.065 56.0290625 -13.9375 54.9453125 C-13.16354806 52.11895469 -12.51690081 51.27274027 -10.05859375 49.58984375 C-6.5380823 47.8423992 -3.04081966 46.37558572 0.6875 45.1328125 C-0.01804068 41.46400095 -1.58985506 38.42830716 -3.3125 35.1328125 C-3.9725 35.1328125 -4.6325 35.1328125 -5.3125 35.1328125 C-5.6425 31.1728125 -5.9725 27.2128125 -6.3125 23.1328125 C-7.3025 22.8028125 -8.2925 22.4728125 -9.3125 22.1328125 C-8.4044838 21.00081897 -7.48566174 19.87748887 -6.5625 18.7578125 C-6.05203125 18.13132812 -5.5415625 17.50484375 -5.015625 16.859375 C-2.51050235 14.31977818 -0.45288439 13.27559233 3.08984375 12.83203125 C8.19755074 12.80842089 11.4573135 12.96017262 15.6875 16.1328125 C16.3475 16.1328125 17.0075 16.1328125 17.6875 16.1328125 C18.95332219 20.00004881 18.7993765 23.86432512 18.75 27.8828125 C18.74548828 28.58019531 18.74097656 29.27757813 18.73632812 29.99609375 C18.7246002 31.70837053 18.70666653 33.42060283 18.6875 35.1328125 C18.0275 35.1328125 17.3675 35.1328125 16.6875 35.1328125 C14.95184698 38.4531922 13.50575274 41.47847985 12.6875 45.1328125 C13.53054687 45.47054687 14.37359375 45.80828125 15.2421875 46.15625 C16.88574219 46.82527344 16.88574219 46.82527344 18.5625 47.5078125 C19.65304688 47.94867188 20.74359375 48.38953125 21.8671875 48.84375 C24.6875 50.1328125 24.6875 50.1328125 26.6875 52.1328125 C27.08514263 54.12102563 27.42525349 56.12225589 27.6875 58.1328125 C30.9875 58.1328125 34.2875 58.1328125 37.6875 58.1328125 C37.73701099 52.38534801 37.7732723 46.63800823 37.79736328 40.89038086 C37.80740853 38.93593177 37.82104717 36.98149766 37.83837891 35.02709961 C37.86269203 32.21464333 37.87399797 29.40238611 37.8828125 26.58984375 C37.89313507 25.71882523 37.90345764 24.8478067 37.91409302 23.95039368 C37.98590238 17.76161955 37.98590238 17.76161955 35.6875 12.1328125 C32.29796827 10.47787053 29.54509299 9.8812468 25.79296875 9.87402344 C24.84848877 9.86771912 23.90400879 9.86141479 22.9309082 9.85491943 C21.9224585 9.8589679 20.91400879 9.86301636 19.875 9.8671875 C18.30528442 9.86431732 18.30528442 9.86431732 16.70385742 9.86138916 C14.49495198 9.86003032 12.28603846 9.86370574 10.07714844 9.87207031 C6.69968699 9.88277388 3.32275744 9.87216463 -0.0546875 9.859375 C-2.20312617 9.86069665 -4.35156451 9.86325915 -6.5 9.8671875 C-8.01267456 9.86111481 -8.01267456 9.86111481 -9.5559082 9.85491943 C-10.97262817 9.86437592 -10.97262817 9.86437592 -12.41796875 9.87402344 C-13.65776489 9.87641022 -13.65776489 9.87641022 -14.92260742 9.87884521 C-17.6977149 10.17374822 -19.80897686 10.91046504 -22.3125 12.1328125 Z M-4.3125 20.1328125 C-3.9825 21.4528125 -3.6525 22.7728125 -3.3125 24.1328125 C-2.3225 24.1328125 -1.3325 24.1328125 -0.3125 24.1328125 C-0.50328125 24.70128906 -0.6940625 25.26976562 -0.890625 25.85546875 C-2.2825799 30.53353836 -2.2825799 30.53353836 -1.625 35.25390625 C-0.17254158 37.82240809 1.00231107 39.79021804 3.6875 41.1328125 C7.22268573 41.51707182 9.01113198 41.62130051 11.9375 39.5078125 C14.08600571 36.59198332 15.07623078 34.73250905 15.6875 31.1328125 C14.96705525 28.01088526 13.91013274 25.09079494 12.6875 22.1328125 C11.3675 22.4628125 10.0475 22.7928125 8.6875 23.1328125 C8.6875 21.8128125 8.6875 20.4928125 8.6875 19.1328125 C9.3475 19.1328125 10.0075 19.1328125 10.6875 19.1328125 C10.6875 18.1428125 10.6875 17.1528125 10.6875 16.1328125 C4.29626255 12.93719377 0.20124031 15.72916341 -4.3125 20.1328125 Z M2.6875 44.1328125 C3.3475 45.4528125 4.0075 46.7728125 4.6875 48.1328125 C6.3375 47.8028125 7.9875 47.4728125 9.6875 47.1328125 C10.0175 46.1428125 10.3475 45.1528125 10.6875 44.1328125 C8.0475 44.1328125 5.4075 44.1328125 2.6875 44.1328125 Z M-3.34765625 48.671875 C-8.66714066 51.46051506 -8.66714066 51.46051506 -12.3125 56.1328125 C-12.3125 56.7928125 -12.3125 57.4528125 -12.3125 58.1328125 C0.2275 58.1328125 12.7675 58.1328125 25.6875 58.1328125 C23.52552787 52.72788216 22.58666353 51.82254934 17.6875 49.1328125 C15.05983611 48.17061548 15.05983611 48.17061548 12.6875 48.1328125 C12.0275 48.7928125 11.3675 49.4528125 10.6875 50.1328125 C3.51726142 50.59540854 3.51726142 50.59540854 0.68359375 49.015625 C-1.28176491 47.89774471 -1.28176491 47.89774471 -3.34765625 48.671875 Z " fill="#79D3FC" transform="translate(34.3125,7.8671875)"/>
<path d="M0 0 C0.99 0.33 1.98 0.66 3 1 C2.67 1.66 2.34 2.32 2 3 C1.34 3 0.68 3 0 3 C0 2.01 0 1.02 0 0 Z " fill="#7CCFFC" transform="translate(35,29)"/>
<path d="M0 0 C0.99 0.33 1.98 0.66 3 1 C2.01 1.33 1.02 1.66 0 2 C0 1.34 0 0.68 0 0 Z " fill="#62DBFC" transform="translate(39,29)"/>
<path d="M0 0 C0.66 0 1.32 0 2 0 C2 0.66 2 1.32 2 2 C1.34 2 0.68 2 0 2 C0 1.34 0 0.68 0 0 Z " fill="#7BD2FC" transform="translate(65,61)"/>
<path d="M0 0 C0.66 0 1.32 0 2 0 C2 0.66 2 1.32 2 2 C1.34 2 0.68 2 0 2 C0 1.34 0 0.68 0 0 Z " fill="#7BD2FC" transform="translate(15,61)"/>
<path d="M0 0 C0.66 0 1.32 0 2 0 C2 0.66 2 1.32 2 2 C1.34 2 0.68 2 0 2 C0 1.34 0 0.68 0 0 Z " fill="#7BD2FC" transform="translate(65,57)"/>
<path d="M0 0 C0.66 0 1.32 0 2 0 C2 0.66 2 1.32 2 2 C1.34 2 0.68 2 0 2 C0 1.34 0 0.68 0 0 Z " fill="#7BD2FC" transform="translate(15,57)"/>
<path d="M0 0 C0.66 0 1.32 0 2 0 C2 0.66 2 1.32 2 2 C1.34 2 0.68 2 0 2 C0 1.34 0 0.68 0 0 Z " fill="#7BD2FC" transform="translate(65,53)"/>
<path d="M0 0 C0.66 0 1.32 0 2 0 C2 0.66 2 1.32 2 2 C1.34 2 0.68 2 0 2 C0 1.34 0 0.68 0 0 Z " fill="#7BD2FC" transform="translate(15,53)"/>
<path d="M0 0 C0.66 0 1.32 0 2 0 C2 0.66 2 1.32 2 2 C1.34 2 0.68 2 0 2 C0 1.34 0 0.68 0 0 Z " fill="#7BD2FC" transform="translate(65,49)"/>
<path d="M0 0 C0.66 0 1.32 0 2 0 C2 0.66 2 1.32 2 2 C1.34 2 0.68 2 0 2 C0 1.34 0 0.68 0 0 Z " fill="#7BD2FC" transform="translate(15,49)"/>
<path d="M0 0 C0.66 0 1.32 0 2 0 C2 0.66 2 1.32 2 2 C1.34 2 0.68 2 0 2 C0 1.34 0 0.68 0 0 Z " fill="#7BD2FC" transform="translate(65,45)"/>
<path d="M0 0 C0.66 0 1.32 0 2 0 C2 0.66 2 1.32 2 2 C1.34 2 0.68 2 0 2 C0 1.34 0 0.68 0 0 Z " fill="#7BD2FC" transform="translate(15,45)"/>
<path d="M0 0 C0.66 0 1.32 0 2 0 C2 0.66 2 1.32 2 2 C1.34 2 0.68 2 0 2 C0 1.34 0 0.68 0 0 Z " fill="#7BD2FC" transform="translate(65,41)"/>
<path d="M0 0 C0.66 0 1.32 0 2 0 C2 0.66 2 1.32 2 2 C1.34 2 0.68 2 0 2 C0 1.34 0 0.68 0 0 Z " fill="#7BD2FC" transform="translate(15,41)"/>
<path d="M0 0 C0.66 0 1.32 0 2 0 C2 0.66 2 1.32 2 2 C1.34 2 0.68 2 0 2 C0 1.34 0 0.68 0 0 Z " fill="#7BD2FC" transform="translate(65,37)"/>
<path d="M0 0 C0.66 0 1.32 0 2 0 C2 0.66 2 1.32 2 2 C1.34 2 0.68 2 0 2 C0 1.34 0 0.68 0 0 Z " fill="#7BD2FC" transform="translate(15,37)"/>
<path d="M0 0 C0.66 0 1.32 0 2 0 C2 0.66 2 1.32 2 2 C1.34 2 0.68 2 0 2 C0 1.34 0 0.68 0 0 Z " fill="#7BD2FC" transform="translate(65,33)"/>
<path d="M0 0 C0.66 0 1.32 0 2 0 C2 0.66 2 1.32 2 2 C1.34 2 0.68 2 0 2 C0 1.34 0 0.68 0 0 Z " fill="#7BD2FC" transform="translate(15,33)"/>
<path d="M0 0 C0.66 0 1.32 0 2 0 C2 0.66 2 1.32 2 2 C1.34 2 0.68 2 0 2 C0 1.34 0 0.68 0 0 Z " fill="#7BD2FC" transform="translate(65,29)"/>
<path d="M0 0 C0.66 0 1.32 0 2 0 C2 0.66 2 1.32 2 2 C1.34 2 0.68 2 0 2 C0 1.34 0 0.68 0 0 Z " fill="#7BD2FC" transform="translate(15,29)"/>
<path d="M0 0 C0.66 0 1.32 0 2 0 C2 0.66 2 1.32 2 2 C1.34 2 0.68 2 0 2 C0 1.34 0 0.68 0 0 Z " fill="#7BD2FC" transform="translate(65,25)"/>
<path d="M0 0 C0.66 0 1.32 0 2 0 C2 0.66 2 1.32 2 2 C1.34 2 0.68 2 0 2 C0 1.34 0 0.68 0 0 Z " fill="#7BD2FC" transform="translate(15,25)"/>
<path d="M0 0 C0.66 0 1.32 0 2 0 C2 0.66 2 1.32 2 2 C1.34 2 0.68 2 0 2 C0 1.34 0 0.68 0 0 Z " fill="#7BD2FC" transform="translate(65,21)"/>
<path d="M0 0 C0.66 0 1.32 0 2 0 C2 0.66 2 1.32 2 2 C1.34 2 0.68 2 0 2 C0 1.34 0 0.68 0 0 Z " fill="#7BD2FC" transform="translate(15,21)"/>
</svg>
